<svg width="512" height="512" viewBox="0 0 100 100" xmlns="http://www.w3.org/2000/svg">
  <defs>
    <linearGradient id="gofiBadge" x1="0%" y1="0%" x2="100%" y2="100%">
      <stop offset="0%" stop-color="#1E3A8A"/>
      <stop offset="55%" stop-color="#4338CA"/>
      <stop offset="100%" stop-color="#7C3AED"/>
    </linearGradient>
  </defs>

  <!-- Badge background -->
  <rect x="2" y="2" width="96" height="96" rx="22" fill="url(#gofiBadge)"/>

  <!-- Connecting lines (semantic links) -->
  <g stroke="#FFFFFF" stroke-width="2.3" stroke-linecap="round" opacity="0.75">
    <line x1="38" y1="38" x2="62" y2="41"/>
    <line x1="62" y1="41" x2="57" y2="65"/>
    <line x1="62" y1="41" x2="75" y2="57"/>
  </g>

  <!-- Document node (knowledge source) -->
  <path d="M26 26 h13 l7 7 v17 a3 3 0 0 1 -3 3 h-17 a3 3 0 0 1 -3 -3 v-21 a3 3 0 0 1 3 -3 z"
        fill="#FFFFFF"/>
  <path d="M39 26 v7 h7 z" fill="#C7D2FE"/>

  <!-- Core semantic node -->
  <circle cx="62" cy="41" r="8.5" fill="#67E8F9"/>

  <!-- Secondary knowledge nodes -->
  <circle cx="57" cy="65" r="6.5" fill="#FFFFFF"/>
  <circle cx="75" cy="57" r="4.6" fill="#FFFFFF" opacity="0.9"/>
</svg>
