<svg width="512" height="512" viewBox="0 0 100 100" xmlns="http://www.w3.org/2000/svg">
  <rect x="0" y="0" width="100" height="100" rx="22" fill="#1F2937"/>

  <g fill="#06B6D4">
    <circle cx="50" cy="50" r="36" fill="none" stroke="#06B6D4" stroke-width="6"/>
    <rect x="47" y="8"  width="6" height="10" rx="1.5"/>
    <rect x="47" y="82" width="6" height="10" rx="1.5"/>
    <rect x="8"  y="47" width="10" height="6" rx="1.5"/>
    <rect x="82" y="47" width="10" height="6" rx="1.5"/>
    <rect x="18.5" y="18.5" width="6" height="10" rx="1.5" transform="rotate(-45 21.5 23.5)"/>
    <rect x="75.5" y="18.5" width="6" height="10" rx="1.5" transform="rotate(45 78.5 23.5)"/>
    <rect x="18.5" y="71.5" width="6" height="10" rx="1.5" transform="rotate(45 21.5 76.5)"/>
    <rect x="75.5" y="71.5" width="6" height="10" rx="1.5" transform="rotate(-45 78.5 76.5)"/>
  </g>

  <line x1="50" y1="30" x2="50" y2="35" stroke="#06B6D4" stroke-width="2" stroke-linecap="round"/>
  <circle cx="50" cy="27.5" r="3" fill="#06B6D4"/>

  <path d="M30,68
           L30,50
           Q30,40 42,38
           L44,34
           Q50,30 56,34
           L58,38
           Q70,40 70,50
           L70,68
           Q70,71.5 66.5,71.5
           L33.5,71.5
           Q30,71.5 30,68
           Z"
        fill="#FFFFFF"/>

  <ellipse cx="38" cy="53" rx="5.4" ry="4" fill="#2563EB"/>
  <ellipse cx="62" cy="53" rx="5.4" ry="4" fill="#2563EB"/>

  <g stroke="#1F2937" stroke-width="1.8" stroke-linecap="round" opacity="0.85">
    <line x1="41" y1="61" x2="59" y2="61"/>
    <line x1="41" y1="65" x2="59" y2="65"/>
    <line x1="43" y1="69" x2="57" y2="69"/>
  </g>
</svg>
